<?xml version="1.0" encoding="utf-8"?>
<svg version="1.1" id="Layer_1"
xmlns="http://www.w3.org/2000/svg"
xmlns:xlink="http://www.w3.org/1999/xlink"
width="1668px" height="702px"
xml:space="preserve">
<g id="PathID_1" transform="matrix(0.90386, 0, 0, 1.15471, 833.55, 312.6)" opacity="1">
<path style="fill:#082929;fill-opacity:1" d="M-922.2 -229.65L922.25 -229.65L922.25 229.65L-922.2 229.65L-922.2 -229.65" />
</g>
<g id="PathID_2" transform="matrix(0.90386, 0, 0, 1.15471, 833.55, 312.6)" opacity="1">
</g>
<g id="PathID_3" transform="matrix(4.74942, 0, 0, 6.21404, 43.7, 295.45)" opacity="1">
<path style="fill:#FFFFFF;fill-opacity:1" d="M-2 0L0.05 -3.6L13 -27.95L14.35 -30.65L16.05 -34.15L22.45 -34.1L29 -34.15L32.65 -23.7L40.1 -3.65L41.55 0L36.3 -0.05L30.1 0Q29 -4.1 26.9 -9.7L14.3 -9.7Q12.15 -5.3 9.85 0L4.1 -0.05L-2 0M17.35 -17L25.1 -17Q22.2 -25.8 21.95 -26.75Q20.3 -23.05 19.15 -20.7L17.35 -17" />
</g>
<g id="PathID_4" transform="matrix(4.74942, 0, 0, 6.21404, 43.7, 295.45)" opacity="1">
</g>
<g id="PathID_5" transform="matrix(4.74942, 0, 0, 6.21404, 241.65, 295.45)" opacity="1">
<path style="fill:#FFFFFF;fill-opacity:1" d="M2.6 0Q3.1 -5.5 3.3 -8.65Q3.55 -12.95 3.75 -20.45Q4 -27.95 4 -31L4 -34.15L9.25 -34.05L15.6 -34.15Q19.25 -34.3 21.85 -34.3Q25 -34.3 26.3 -34.1Q28.05 -33.9 29.35 -33.3Q30.7 -32.7 31.55 -31.85Q32.55 -30.85 33.1 -29.45Q33.75 -27.85 33.75 -26.05Q33.75 -24.6 33.35 -23.3Q33 -22 32.3 -21Q31.65 -20 30.8 -19.3Q30 -18.65 29.2 -18.25Q28.45 -17.9 27.1 -17.5Q28.45 -17.3 29.25 -17Q30.05 -16.7 30.95 -16.05Q31.85 -15.45 32.55 -14.45Q33.3 -13.45 33.65 -12.2Q34.05 -10.95 34.05 -9.6Q34.05 -7.7 33.4 -6Q32.75 -4.35 31.65 -3.15Q30.7 -2.1 29.15 -1.35Q27.65 -0.65 26.05 -0.4Q24.75 -0.2 21.3 -0.1Q17.85 0 14 0L7.45 0L2.6 0M13.7 -20.85L17.25 -20.85L19.75 -20.9Q20.5 -21 21.2 -21.2Q21.9 -21.45 22.4 -21.95Q22.95 -22.5 23.15 -23.15Q23.4 -23.8 23.4 -24.45Q23.4 -25.4 22.95 -26.1Q22.5 -26.85 21.5 -27.2Q20.55 -27.55 18.55 -27.55L14.05 -27.55L13.7 -20.85M13.15 -6.85L17.95 -6.85Q19.85 -6.85 20.75 -7.05Q21.85 -7.35 22.4 -7.8Q23 -8.25 23.35 -9Q23.7 -9.8 23.7 -10.75Q23.7 -11.55 23.4 -12.15Q23.15 -12.8 22.6 -13.2Q22.05 -13.65 21.25 -13.85Q20.45 -14.05 18.75 -14.05L13.45 -14.05L13.15 -6.85" />
</g>
<g id="PathID_6" transform="matrix(4.74942, 0, 0, 6.21404, 241.65, 295.45)" opacity="1">
</g>
<g id="PathID_7" transform="matrix(4.74942, 0, 0, 6.21404, 414.25, 295.45)" opacity="1">
<path style="fill:#FFFFFF;fill-opacity:1" d="M2.5 0Q3.1 -6.45 3.4 -10.8Q3.7 -15.15 3.95 -22.35Q4.25 -29.55 4.25 -31.9L4.25 -34.15L18.5 -34.1L32.1 -34.15L32.05 -33.3L31.9 -31.15L31.75 -28.4L31.7 -26.65Q26.9 -26.85 23.65 -26.85L18.8 -26.85L14.9 -26.75L14.6 -21Q17.5 -20.9 21.4 -20.9L28.85 -21.1L28.35 -13.5L21.7 -13.55Q18.3 -13.55 14.05 -13.35L13.7 -7.25L16.6 -7.25L21.85 -7.3L27.05 -7.45Q28.2 -7.45 30.9 -7.65Q30.6 -3.95 30.4 0L17 -0.05L6 0L2.5 0" />
</g>
<g id="PathID_8" transform="matrix(4.74942, 0, 0, 6.21404, 414.25, 295.45)" opacity="1">
</g>
<g id="PathID_9" transform="matrix(4.74942, 0, 0, 6.21404, 574.5, 295.45)" opacity="1">
<path style="fill:#FFFFFF;fill-opacity:1" d="M2.45 0Q2.9 -4.4 3.15 -7.9Q3.45 -11.45 3.65 -16.1Q3.85 -20.75 3.95 -25.9L4.05 -34.15L9.1 -34.05L13.95 -34.15Q16.85 -34.3 19.6 -34.3Q22.8 -34.3 25.3 -34.05Q27.15 -33.85 28.7 -33.3Q30.25 -32.75 31.3 -31.95Q32.35 -31.2 33.05 -30.2Q33.75 -29.25 34.15 -27.9Q34.55 -26.6 34.55 -25.1Q34.55 -23.45 34.1 -21.95Q33.65 -20.5 32.75 -19.2Q31.85 -17.95 30.45 -17Q29.05 -16.05 26.55 -15.1L27.85 -11.9L29.05 -9.2L32.4 -1.85L33.2 0L27.6 -0.05L21.7 0L20.25 -4.8Q19.85 -6.3 19.55 -7.1L17.75 -12.1L15.15 -19.2Q16.5 -18.95 17.85 -18.95Q19.65 -18.95 21.15 -19.45Q22.65 -20 23.4 -21.15Q24.2 -22.3 24.2 -23.6Q24.2 -24.65 23.6 -25.45Q23.05 -26.3 21.8 -26.7Q20.55 -27.1 18 -27.1L16.15 -27.05L14 -27Q13.65 -21.85 13.4 -14.45Q13.15 -7.1 13.1 0L7.65 -0.05L2.45 0" />
</g>
<g id="PathID_10" transform="matrix(4.74942, 0, 0, 6.21404, 574.5, 295.45)" opacity="1">
</g>
<g id="PathID_11" transform="matrix(4.74942, 0, 0, 6.21404, 744.95, 295.45)" opacity="1">
<path style="fill:#FFFFFF;fill-opacity:1" d="M10.1 0Q11.3 -12.15 11.55 -26.75L0.9 -26.45L1.05 -29.2L1.2 -34.15Q8.3 -34.05 17.75 -34.05L23.9 -34.1L29.9 -34.1L33.15 -34.15L33 -31.65L32.85 -28.4L32.85 -26.45Q27.5 -26.75 24 -26.75L22.3 -26.75Q21.9 -22.3 21.7 -18.55L21.3 -8.15Q21.15 -3.1 21.15 0L15.85 -0.05L10.1 0" />
</g>
<g id="PathID_12" transform="matrix(4.74942, 0, 0, 6.21404, 744.95, 295.45)" opacity="1">
</g>
<g id="PathID_13" transform="matrix(4.74942, 0, 0, 6.21404, 899.2, 295.45)" opacity="1">
<path style="fill:#FFFFFF;fill-opacity:1" d="M4 -34.15L9.5 -34.1L14.85 -34.15L14.05 -23.5L13.7 -17.85L13.6 -14.25Q13.6 -12.35 13.85 -11.05Q14.15 -9.8 14.85 -8.9Q15.6 -8.05 16.9 -7.6Q18.2 -7.15 19.6 -7.15Q20.8 -7.15 21.85 -7.45Q22.65 -7.7 23.3 -8.2Q23.9 -8.65 24.3 -9.25Q24.85 -9.95 25.25 -11.05Q25.65 -12.05 25.85 -13.65Q26.05 -15.3 26.45 -21.1Q26.75 -26.05 26.9 -30.15Q27.05 -34.15 27.2 -34.15L33.15 -34.15L38.25 -34.15L37 -16.35L37 -15.55Q36.9 -10.35 36.35 -8.2Q35.8 -6.05 34.55 -4.45Q33.3 -2.9 30.9 -1.65Q28.5 -0.4 25.45 0.1Q22.4 0.65 19.3 0.65Q16.5 0.65 13.9 0.25Q11.5 -0.15 9.55 -0.9Q7.65 -1.65 6.2 -2.7Q4.9 -3.65 4.2 -4.6Q3.55 -5.6 3.15 -7Q2.7 -8.55 2.7 -10.3L2.75 -12.1L2.95 -15.6L3.3 -19.6L3.55 -24.25L4 -34.15" />
</g>
<g id="PathID_14" transform="matrix(4.74942, 0, 0, 6.21404, 899.2, 295.45)" opacity="1">
</g>
<g id="PathID_15" transform="matrix(4.74942, 0, 0, 6.21404, 1088.2, 295.45)" opacity="1">
<path style="fill:#FFFFFF;fill-opacity:1" d="M2.45 0Q2.9 -4.4 3.15 -7.9Q3.45 -11.45 3.65 -16.1Q3.85 -20.75 3.95 -25.9L4.05 -34.15L9.1 -34.05L13.95 -34.15Q16.85 -34.3 19.6 -34.3Q22.8 -34.3 25.3 -34.05Q27.15 -33.85 28.7 -33.3Q30.25 -32.75 31.3 -31.95Q32.35 -31.2 33.05 -30.2Q33.75 -29.25 34.15 -27.9Q34.55 -26.6 34.55 -25.1Q34.55 -23.45 34.1 -21.95Q33.65 -20.5 32.75 -19.2Q31.85 -17.95 30.45 -17Q29.05 -16.05 26.55 -15.1L27.85 -11.9L29.05 -9.2L32.4 -1.85L33.2 0L27.6 -0.05L21.7 0L20.25 -4.8Q19.85 -6.3 19.55 -7.1L17.75 -12.1L15.15 -19.2Q16.5 -18.95 17.85 -18.95Q19.65 -18.95 21.15 -19.45Q22.65 -20 23.4 -21.15Q24.2 -22.3 24.2 -23.6Q24.2 -24.65 23.6 -25.45Q23.05 -26.3 21.8 -26.7Q20.55 -27.1 18 -27.1L16.15 -27.05L14 -27Q13.65 -21.85 13.4 -14.45Q13.15 -7.1 13.1 0L7.65 -0.05L2.45 0" />
</g>
<g id="PathID_16" transform="matrix(4.74942, 0, 0, 6.21404, 1088.2, 295.45)" opacity="1">
</g>
<g id="PathID_17" transform="matrix(4.74942, 0, 0, 6.21404, 1258.65, 295.45)" opacity="1">
<path style="fill:#FFFFFF;fill-opacity:1" d="M-2 0L0.05 -3.6L13 -27.95L14.35 -30.65L16.05 -34.15L22.45 -34.1L29 -34.15L32.65 -23.7L40.1 -3.65L41.55 0L36.3 -0.05L30.1 0Q29 -4.1 26.9 -9.7L14.3 -9.7Q12.15 -5.3 9.85 0L4.1 -0.05L-2 0M17.35 -17L25.1 -17Q22.2 -25.8 21.95 -26.75Q20.3 -23.05 19.15 -20.7L17.35 -17" />
</g>
<g id="PathID_18" transform="matrix(4.74942, 0, 0, 6.21404, 1258.65, 295.45)" opacity="1">
</g>
<g id="PathID_19" transform="matrix(4.74942, 0, 0, 6.21404, 1456.6, 295.45)" opacity="1">
<path style="fill:#FFFFFF;fill-opacity:1" d="M2.2 -0.55Q1.85 -5.85 1.45 -9.1Q4.25 -7.8 6.4 -7.3Q8.6 -6.85 10.25 -6.85Q12.45 -6.85 13.75 -7.45Q15.05 -8.1 15.05 -9.35Q15.05 -9.75 14.9 -10.15Q14.75 -10.55 14.4 -11Q14.05 -11.5 13.4 -12.1L8.7 -16.2L6.4 -18.2Q5.1 -19.5 4.35 -20.6Q3.6 -21.7 3.25 -22.8Q2.95 -23.95 2.95 -25.25Q2.95 -26.75 3.45 -28.2Q4 -29.7 5.05 -30.95Q6.15 -32.25 7.9 -33.15Q9.7 -34.1 11.7 -34.45Q13.75 -34.8 15.9 -34.8Q20.15 -34.8 25.1 -33.8L25.3 -30.6L25.8 -25.6Q23.5 -26.5 21.6 -26.85Q19.7 -27.25 18.3 -27.25Q16.35 -27.25 15.05 -26.5Q13.8 -25.8 13.8 -24.7Q13.8 -24.2 14 -23.7Q14.2 -23.25 14.75 -22.6L16.2 -21.2L19 -18.95L20.8 -17.55Q21.6 -16.9 22.5 -15.95Q23.45 -15.05 24.1 -14.15Q24.8 -13.25 25.15 -12.5Q25.55 -11.75 25.7 -10.95Q25.9 -10.2 25.9 -9.35Q25.9 -7.1 24.8 -5.05Q23.7 -3 21.7 -1.7Q19.75 -0.4 17.4 0.1Q15.05 0.65 12.4 0.65Q8.35 0.65 2.2 -0.55" />
</g>
<g id="PathID_20" transform="matrix(4.74942, 0, 0, 6.21404, 1456.6, 295.45)" opacity="1">
</g>
<g id="PathID_21" transform="matrix(4.74942, 0, 0, 6.21404, 274.8, 542.6)" opacity="1">
<path style="fill:#FC0006;fill-opacity:1" d="M2.5 0Q3.1 -6.45 3.4 -10.8Q3.7 -15.15 3.95 -22.35Q4.25 -29.55 4.25 -31.9L4.25 -34.15L18.5 -34.1L32.1 -34.15L32.05 -33.3L31.9 -31.15L31.75 -28.4L31.7 -26.65Q26.9 -26.85 23.65 -26.85L18.8 -26.85L14.9 -26.75L14.6 -21Q17.5 -20.9 21.4 -20.9L28.85 -21.1L28.35 -13.5L21.7 -13.55Q18.3 -13.55 14.05 -13.35L13.7 -7.25L16.6 -7.25L21.85 -7.3L27.05 -7.45Q28.2 -7.45 30.9 -7.65Q30.6 -3.95 30.4 0L17 -0.05L6 0L2.5 0" />
</g>
<g id="PathID_22" transform="matrix(4.74942, 0, 0, 6.21404, 274.8, 542.6)" opacity="1">
</g>
<g id="PathID_23" transform="matrix(4.74942, 0, 0, 6.21404, 435, 542.6)" opacity="1">
<path style="fill:#FC0006;fill-opacity:1" d="M-2.35 0Q0.55 -3.7 4.75 -9.3Q8.95 -14.9 11.25 -18.2L8.3 -23.15L5.9 -26.95L3.4 -30.8L1.35 -34.15L7.95 -34.1L13.65 -34.15Q14.75 -31.95 16.25 -29.4Q17.75 -26.85 18.6 -25Q19.6 -26.7 21.3 -29.25Q23.05 -31.85 24.35 -34.15L30.15 -34.1L35.9 -34.15Q34.1 -31.55 30.55 -26.8Q27 -22.1 23.8 -17.5Q27.85 -10.6 34.85 0L28.9 -0.05L22.35 0Q21.4 -2 19.6 -5.05Q17.85 -8.1 16.55 -10.7Q15.6 -8.95 13.35 -5.75Q11.15 -2.6 9.45 0L3.65 -0.05L-2.35 0" />
</g>
<g id="PathID_24" transform="matrix(4.74942, 0, 0, 6.21404, 435, 542.6)" opacity="1">
</g>
<g id="PathID_25" transform="matrix(4.74942, 0, 0, 6.21404, 601.7, 542.6)" opacity="1">
<path style="fill:#FC0006;fill-opacity:1" d="M2.6 0L3.05 -6.4L3.7 -18.9L4 -27.75L4 -30.6L4 -34.15L9.3 -34.05L14.55 -34.15Q17.9 -34.3 20.25 -34.3Q23.6 -34.3 25.2 -33.85Q26.8 -33.4 28.1 -32.5Q29.45 -31.6 30.3 -30.35Q31.15 -29.15 31.55 -27.55Q32 -26 32 -24.4Q32 -21.05 30.35 -18.25Q28.75 -15.5 25.8 -14.1Q22.85 -12.75 19.15 -12.75Q17.8 -12.75 16.05 -13.05Q15.85 -14.2 15.3 -16.45L14.4 -19.9Q15.5 -19.65 16.7 -19.65Q19.2 -19.65 20.45 -20.85Q21.7 -22.05 21.7 -23.8Q21.7 -24.65 21.4 -25.3Q21.15 -26 20.55 -26.4Q19.95 -26.85 19.2 -26.95Q18.5 -27.1 17.55 -27.1L15.7 -27.05L13.6 -26.9Q13.25 -22.05 13.05 -16.15L12.75 -3.25L12.75 0L7.75 -0.05L2.6 0" />
</g>
<g id="PathID_26" transform="matrix(4.74942, 0, 0, 6.21404, 601.7, 542.6)" opacity="1">
</g>
<g id="PathID_27" transform="matrix(4.74942, 0, 0, 6.21404, 756.95, 542.6)" opacity="1">
<path style="fill:#FC0006;fill-opacity:1" d="M2.45 0Q2.9 -4.4 3.15 -7.9Q3.45 -11.45 3.65 -16.1Q3.85 -20.75 3.95 -25.9L4.05 -34.15L9.1 -34.05L13.95 -34.15Q16.85 -34.3 19.6 -34.3Q22.8 -34.3 25.3 -34.05Q27.15 -33.85 28.7 -33.3Q30.25 -32.75 31.3 -31.95Q32.35 -31.2 33.05 -30.2Q33.75 -29.25 34.15 -27.9Q34.55 -26.6 34.55 -25.1Q34.55 -23.45 34.1 -21.95Q33.65 -20.5 32.75 -19.2Q31.85 -17.95 30.45 -17Q29.05 -16.05 26.55 -15.1L27.85 -11.9L29.05 -9.2L32.4 -1.85L33.2 0L27.6 -0.05L21.7 0L20.25 -4.8Q19.85 -6.3 19.55 -7.1L17.75 -12.1L15.15 -19.2Q16.5 -18.95 17.85 -18.95Q19.65 -18.95 21.15 -19.45Q22.65 -20 23.4 -21.15Q24.2 -22.3 24.2 -23.6Q24.2 -24.65 23.6 -25.45Q23.05 -26.3 21.8 -26.7Q20.55 -27.1 18 -27.1L16.15 -27.05L14 -27Q13.65 -21.85 13.4 -14.45Q13.15 -7.1 13.1 0L7.65 -0.05L2.45 0" />
</g>
<g id="PathID_28" transform="matrix(4.74942, 0, 0, 6.21404, 756.95, 542.6)" opacity="1">
</g>
<g id="PathID_29" transform="matrix(4.74942, 0, 0, 6.21404, 927.45, 542.6)" opacity="1">
<path style="fill:#FC0006;fill-opacity:1" d="M2.5 0Q3.1 -6.45 3.4 -10.8Q3.7 -15.15 3.95 -22.35Q4.25 -29.55 4.25 -31.9L4.25 -34.15L18.5 -34.1L32.1 -34.15L32.05 -33.3L31.9 -31.15L31.75 -28.4L31.7 -26.65Q26.9 -26.85 23.65 -26.85L18.8 -26.85L14.9 -26.75L14.6 -21Q17.5 -20.9 21.4 -20.9L28.85 -21.1L28.35 -13.5L21.7 -13.55Q18.3 -13.55 14.05 -13.35L13.7 -7.25L16.6 -7.25L21.85 -7.3L27.05 -7.45Q28.2 -7.45 30.9 -7.65Q30.6 -3.95 30.4 0L17 -0.05L6 0L2.5 0" />
</g>
<g id="PathID_30" transform="matrix(4.74942, 0, 0, 6.21404, 927.45, 542.6)" opacity="1">
</g>
<g id="PathID_31" transform="matrix(4.74942, 0, 0, 6.21404, 1087.65, 542.6)" opacity="1">
<path style="fill:#FC0006;fill-opacity:1" d="M2.2 -0.55Q1.85 -5.85 1.45 -9.1Q4.25 -7.8 6.4 -7.3Q8.6 -6.85 10.25 -6.85Q12.45 -6.85 13.75 -7.45Q15.05 -8.1 15.05 -9.35Q15.05 -9.75 14.9 -10.15Q14.75 -10.55 14.4 -11Q14.05 -11.5 13.4 -12.1L8.7 -16.2L6.4 -18.2Q5.1 -19.5 4.35 -20.6Q3.6 -21.7 3.25 -22.8Q2.95 -23.95 2.95 -25.25Q2.95 -26.75 3.45 -28.2Q4 -29.7 5.05 -30.95Q6.15 -32.25 7.9 -33.15Q9.7 -34.1 11.7 -34.45Q13.75 -34.8 15.9 -34.8Q20.15 -34.8 25.1 -33.8L25.3 -30.6L25.8 -25.6Q23.5 -26.5 21.6 -26.85Q19.7 -27.25 18.3 -27.25Q16.35 -27.25 15.05 -26.5Q13.8 -25.8 13.8 -24.7Q13.8 -24.2 14 -23.7Q14.2 -23.25 14.75 -22.6L16.2 -21.2L19 -18.95L20.8 -17.55Q21.6 -16.9 22.5 -15.95Q23.45 -15.05 24.1 -14.15Q24.8 -13.25 25.15 -12.5Q25.55 -11.75 25.7 -10.95Q25.9 -10.2 25.9 -9.35Q25.9 -7.1 24.8 -5.05Q23.7 -3 21.7 -1.7Q19.75 -0.4 17.4 0.1Q15.05 0.65 12.4 0.65Q8.35 0.65 2.2 -0.55" />
</g>
<g id="PathID_32" transform="matrix(4.74942, 0, 0, 6.21404, 1087.65, 542.6)" opacity="1">
</g>
<g id="PathID_33" transform="matrix(4.74942, 0, 0, 6.21404, 1222, 542.6)" opacity="1">
<path style="fill:#FC0006;fill-opacity:1" d="M2.2 -0.55Q1.85 -5.85 1.45 -9.1Q4.25 -7.8 6.4 -7.3Q8.6 -6.85 10.25 -6.85Q12.45 -6.85 13.75 -7.45Q15.05 -8.1 15.05 -9.35Q15.05 -9.75 14.9 -10.15Q14.75 -10.55 14.4 -11Q14.05 -11.5 13.4 -12.1L8.7 -16.2L6.4 -18.2Q5.1 -19.5 4.35 -20.6Q3.6 -21.7 3.25 -22.8Q2.95 -23.95 2.95 -25.25Q2.95 -26.75 3.45 -28.2Q4 -29.7 5.05 -30.95Q6.15 -32.25 7.9 -33.15Q9.7 -34.1 11.7 -34.45Q13.75 -34.8 15.9 -34.8Q20.15 -34.8 25.1 -33.8L25.3 -30.6L25.8 -25.6Q23.5 -26.5 21.6 -26.85Q19.7 -27.25 18.3 -27.25Q16.35 -27.25 15.05 -26.5Q13.8 -25.8 13.8 -24.7Q13.8 -24.2 14 -23.7Q14.2 -23.25 14.75 -22.6L16.2 -21.2L19 -18.95L20.8 -17.55Q21.6 -16.9 22.5 -15.95Q23.45 -15.05 24.1 -14.15Q24.8 -13.25 25.15 -12.5Q25.55 -11.75 25.7 -10.95Q25.9 -10.2 25.9 -9.35Q25.9 -7.1 24.8 -5.05Q23.7 -3 21.7 -1.7Q19.75 -0.4 17.4 0.1Q15.05 0.65 12.4 0.65Q8.35 0.65 2.2 -0.55" />
</g>
<g id="PathID_34" transform="matrix(4.74942, 0, 0, 6.21404, 1222, 542.6)" opacity="1">
</g>
<g id="PathID_35" transform="matrix(1.82007, 0, 0, 1.5849, 293.7, 646)" opacity="1">
<path style="fill:#000000;fill-opacity:1" d="M10.7 -7.95L7.15 0L0 0L15.6 -36.05L22.65 -36.05L38.25 0L31.05 0L27.55 -7.95L10.7 -7.95M24.95 -14.45L19.1 -27.9L13.25 -14.45L24.95 -14.45" />
</g>
<g id="PathID_36" transform="matrix(1.82007, 0, 0, 1.5849, 293.7, 646)" opacity="1">
</g>
<g id="PathID_37" transform="matrix(1.82007, 0, 0, 1.5849, 440.6, 646)" opacity="1">
<path style="fill:#000000;fill-opacity:1" d="M4.85 0L4.85 -36.05L11.8 -36.05L11.8 -6.6L27.85 -6.6L27.85 0L4.85 0" />
</g>
<g id="PathID_38" transform="matrix(1.82007, 0, 0, 1.5849, 440.6, 646)" opacity="1">
</g>
<g id="PathID_39" transform="matrix(1.82007, 0, 0, 1.5849, 571.15, 646)" opacity="1">
<path style="fill:#000000;fill-opacity:1" d="M13.65 -8.85Q15.9 -6.2 19.75 -6.2Q23.65 -6.2 25.9 -8.85Q28.2 -11.5 28.2 -16.15L28.2 -36.05L35.15 -36.05L35.15 -15.9Q35.15 -8.1 30.8 -3.85Q26.5 0.4 19.75 0.4Q13 0.4 8.7 -3.85Q4.4 -8.1 4.4 -15.9L4.4 -36.05L11.35 -36.05L11.35 -16.15Q11.35 -11.5 13.65 -8.85" />
</g>
<g id="PathID_40" transform="matrix(1.82007, 0, 0, 1.5849, 571.15, 646)" opacity="1">
</g>
<g id="PathID_41" transform="matrix(1.82007, 0, 0, 1.5849, 720.35, 646)" opacity="1">
<path style="fill:#000000;fill-opacity:1" d="M11.8 0L4.85 0L4.85 -36.05L14.95 -36.05L25.2 -14.05L35.45 -36.05L45.5 -36.05L45.5 0L38.55 0L38.55 -27.4L27.15 -3.05L23.15 -3.05L11.8 -27.4L11.8 0" />
</g>
<g id="PathID_42" transform="matrix(1.82007, 0, 0, 1.5849, 720.35, 646)" opacity="1">
</g>
<g id="PathID_43" transform="matrix(1.82007, 0, 0, 1.5849, 889.75, 646)" opacity="1">
<path style="fill:#000000;fill-opacity:1" d="M4.85 -36.05L11.8 -36.05L11.8 0L4.85 0L4.85 -36.05" />
</g>
<g id="PathID_44" transform="matrix(1.82007, 0, 0, 1.5849, 889.75, 646)" opacity="1">
</g>
<g id="PathID_45" transform="matrix(1.82007, 0, 0, 1.5849, 996.5, 646)" opacity="1">
<path style="fill:#000000;fill-opacity:1" d="M31.15 -36.05L38.1 -36.05L38.1 0L30.9 0L11.8 -25.6L11.8 0L4.85 0L4.85 -36.05L11.55 -36.05L31.15 -9.85L31.15 -36.05" />
</g>
<g id="PathID_46" transform="matrix(1.82007, 0, 0, 1.5849, 996.5, 646)" opacity="1">
</g>
<g id="PathID_47" transform="matrix(1.82007, 0, 0, 1.5849, 1152.15, 646)" opacity="1">
<path style="fill:#000000;fill-opacity:1" d="M4.85 -36.05L11.8 -36.05L11.8 0L4.85 0L4.85 -36.05" />
</g>
<g id="PathID_48" transform="matrix(1.82007, 0, 0, 1.5849, 1152.15, 646)" opacity="1">
</g>
<g id="PathID_49" transform="matrix(1.82007, 0, 0, 1.5849, 1258.9, 646)" opacity="1">
<path style="fill:#000000;fill-opacity:1" d="M30 -26.95Q26.55 -30.5 21.55 -30.5Q16.6 -30.5 13.15 -26.95Q9.7 -23.4 9.7 -18.25Q9.7 -13.15 13.15 -9.6Q16.6 -6.05 21.55 -6.05Q26.55 -6.05 30 -9.6Q33.45 -13.2 33.45 -18.25Q33.45 -23.35 30 -26.95M35.1 -4.95Q29.6 0.4 21.55 0.4Q13.5 0.4 8.05 -4.95Q2.6 -10.3 2.6 -18.25Q2.6 -26.25 8.05 -31.55Q13.55 -36.9 21.55 -36.9Q29.6 -36.9 35.1 -31.55Q40.6 -26.2 40.6 -18.25Q40.6 -10.3 35.1 -4.95" />
</g>
<g id="PathID_50" transform="matrix(1.82007, 0, 0, 1.5849, 1258.9, 646)" opacity="1">
</g>
</svg>
